<?xml version="1.0" encoding="UTF-8"?>
<svg xmlns="http://www.w3.org/2000/svg" version="1.1" viewBox="0 0 595.3 841.9">
  <!-- Generator: Adobe Illustrator 29.2.1, SVG Export Plug-In . SVG Version: 2.1.0 Build 116)  -->
  <defs>
    <style>
      .st0 {
        fill: #0a6d4e;
      }

      .st1 {
        fill: #fff;
      }

      .st2 {
        fill: #b8355e;
      }

      .st3 {
        fill: #312783;
      }

      .st4 {
        fill: #1d1d1b;
      }

      .st5 {
        fill: #931c4d;
      }

      .st6 {
        fill: #936037;
      }
    </style>
  </defs>
  <g id="OCCHIO">
    <path class="st6" d="M369.2,323.1c-.7,0-1.3-.3-1.7-.9-5.8-9.1-31.4-7.2-40.7-5.7-4.3.5-50.7,5.6-51.2,5.6-1.1.1-2.1-.7-2.2-1.8-.1-1.1.7-2.1,1.8-2.2.5,0,46.8-5.1,51-5.6,1.4-.2,36.2-5.7,44.6,7.5.6.9.3,2.2-.6,2.8-.3.2-.7.3-1.1.3Z"/>
    <path class="st1" d="M366.7,360.4c-3.7,4.1-17.7,17.1-43.3,17.1s-39.2-13.1-42.7-17.1c3.5-4.1,17.2-.1,43-.1s39.3-4,43,.1Z"/>
    <path class="st6" d="M370.9,359.2c-.6-.8-15-3-47.2-3s-46.7,2.2-47.2,3l-.8,1.2.8,1.2c.6.8,14.6,19.9,46.9,19.9s47-19.1,47.6-19.9l.9-1.2-.9-1.2Z"/>
    <path class="st1" d="M323.3,377.5c-25.7,0-39.2-13.1-42.7-17.1,6.6.2,17.2-.1,43-.1s38.3-1.1,43,.1c-3.7,4.1-17.7,17.1-43.3,17.1Z"/>
    <ellipse class="st0" cx="323.7" cy="379" rx="18.7" ry="0"/>
    <ellipse class="st4" cx="323.7" cy="370.9" rx="10.6" ry="0"/>
  </g>
  <g id="CAPELLI">
    <path class="st3" d="M522.6,425.6c0-8.6-4.4-16.4-11.5-22,11-5.3,18.4-15.1,18.4-26.3s-8.2-22.1-20.3-27.2c9.9-5.9,16.5-15.8,16.5-27.1s-10-25.9-24.1-30.6c3.6-5.5,5.8-12,5.8-19,0-16.9-12.4-31.1-29.1-34.7.5-2.6.7-5.4.7-8.2,0-22.6-16.8-41-37.4-41s-2.6,0-3.9.2c-3.5-18.7-18.6-32.8-36.7-32.8s-18.7,4.1-25.4,10.9c-5.2-14-16.6-23.7-29.8-23.7s-18.5,5.3-24.5,13.7c-7.7-5.2-16.9-8.2-26.9-8.2-25.6,0-46.6,20-48.2,45.3,0,0,0,0,0,0-7.2-3.5-15.5-5.4-24.2-5.4-29,0-52.5,21.6-52.5,48.2s.4,6.5,1,9.6c-3.3-.8-6.7-1.2-10.2-1.2-23.3,0-42.1,17.8-42.1,39.8s1,10.1,2.9,14.6c-2.7-.5-5.4-.8-8.3-.8-23.3,0-42.1,17.8-42.1,39.8s5.8,23.1,14.9,30.4c-12.1,8.8-19.9,22.5-19.9,37.8s9.3,31.5,23.4,40.2c.9,18.3,13,33.5,29,37.6,0,.4,0,.7,0,1.1,0,22.6,16,41,35.6,41s17.6-4,23.9-10.6c5.6,10.2,14.6,16.8,24.7,16.8s18.3-6,24-15.4c2.5,1.1,5.1,1.6,7.8,1.6,9.5,0,17.9-7,23-17.7,14.7-1.2,26.4-19,26.4-40.9s-12.5-41-28-41-18,7-23,17.7c-3,.2-5.9,1.2-8.6,2.8,2.4-4.7,3.7-9.9,3.7-15.4,0-18.9-15.7-34.5-36.2-37.1,12.8-6.5,21.4-18.7,21.4-32.7s-8.3-25.7-20.7-32.3c22-1.3,39.4-17.6,39.4-37.4s0-.5,0-.8c19.1-3.3,34.5-16.1,40.3-32.8,0,0,0,0,0,0,5.5,5.5,12.2,8.7,19.4,8.7s11.4-2.2,16.3-6c5.8,18.7,21.5,32,39.8,32s9.8-1,14.2-2.8c7.1,6.3,16.1,10.1,25.8,10.1s1.9,0,2.8-.1c1.8,24,18.9,43,40.1,44.1-4.3,7.5-6.8,16.5-6.8,26.2s1.6,15.1,4.5,21.6c-14.2,6-24,18.9-24,33.9s.3,4.7.7,7c-6-4.2-13.2-6.6-21-6.6-21,0-38.1,18-38.1,40.1s17.1,40.1,38.1,40.1,5.4-.3,8-.9c5.2,15.7,19.3,27,36,27s21.1-5,28.1-13c3.8.8,7.8,1.2,11.9,1.2,26.8,0,48.6-18,48.6-40.1s-3.7-17.5-9.9-24.3c9.8-5.5,16.1-14.7,16.1-25.1Z"/>
  </g>
  <g id="BOCCA">
    <g>
      <path class="st2" d="M138.5,539.3s22.9,3.5,34.8,17.8c1,1.2,2,2.2,3,3.3,7.6,7.8,32.9,32.8,52.9,43.1.7.4,1.4.7,2.1,1.1,5.4,2.9,37.3,19.3,83.7,19.3,46.4,0,78.4-16.4,83.7-19.3s1.4-.7,2.1-1.1c20.1-10.3,45.3-35.3,52.9-43.1,1-1.1,2.1-2.2,3-3.3,11.9-14.3,34.8-17.8,34.8-17.8,0,0-25.9-6.5-67.1-47.8-41.3-41.3-79.2-62.2-109.5-36.6-30.3-25.6-68.2-4.7-109.5,36.6-41.3,41.3-67.1,47.8-67.1,47.8Z"/>
      <path class="st5" d="M138.5,539.3h0c1.1-.2,110.4-26,177.7-5.4,65.1-22.2,174.5,5.1,175.6,5.4h0c-1.1-.3-110.9-23.6-174.9-1.4l-.6.2-.6-.2c-66.2-20.7-176.1,1.1-177.1,1.3Z"/>
    </g>
  </g>
</svg>